<?xml version="1.0" encoding="iso-8859-1"?>
<!-- Generator: Adobe Illustrator 19.0.0, SVG Export Plug-In . SVG Version: 6.00 Build 0)  -->
<svg xmlns="http://www.w3.org/2000/svg" xmlns:xlink="http://www.w3.org/1999/xlink" version="1.1" id="Capa_1" x="0px" y="0px" viewBox="0 0 400 400" style="enable-background:new 0 0 400 400;" xml:space="preserve" width="512px" height="512px">
<g>
	<g>
		<path d="M200,0C89.543,0,0,89.543,0,200s89.543,200,200,200s200-89.543,200-200S310.457,0,200,0z M88.48,136    c0.132-16.475,13.525-29.761,30-29.76c16.569,0.001,30,13.432,29.999,30.001s-13.432,30-30.001,29.999s-30-13.432-29.999-30.001    C88.479,136.159,88.479,136.08,88.48,136z M302.92,315.4c-4.153,1.524-8.756-0.607-10.28-4.76C279.6,275.36,242.4,251.6,200,251.6    s-80,23.76-92.64,59.12l0,0c-1.524,4.153-6.127,6.284-10.28,4.76c-4.153-1.524-6.284-6.127-4.76-10.28    c15.36-41.6,58.56-69.6,107.68-69.6c49.12,0,92.32,27.92,107.68,69.52C309.204,309.273,307.073,313.876,302.92,315.4z     M281.761,166.239c-0.08,0.001-0.161,0.001-0.241,0.001c-16.569-0.001-30-13.432-29.999-30.001s13.432-30,30.001-29.999    c16.474,0,29.866,13.286,29.998,29.76C311.653,152.568,298.329,166.106,281.761,166.239z" fill="#FFFFFF"/>
	</g>
</g>
<g>
</g>
<g>
</g>
<g>
</g>
<g>
</g>
<g>
</g>
<g>
</g>
<g>
</g>
<g>
</g>
<g>
</g>
<g>
</g>
<g>
</g>
<g>
</g>
<g>
</g>
<g>
</g>
<g>
</g>
</svg>
